<svg xmlns="http://www.w3.org/2000/svg" viewBox="0 0 512 512" role="img" aria-labelledby="title desc">
  <title id="title">Mangrok seal</title><desc id="desc">A plum and gold culinary seal with a book-shaped M, spoon, and leaf.</desc>
  <defs><radialGradient id="p"><stop stop-color="#6a204b"/><stop offset="1" stop-color="#260e22"/></radialGradient><linearGradient id="g"><stop stop-color="#ffe38e"/><stop offset="1" stop-color="#b16b12"/></linearGradient></defs>
  <circle cx="256" cy="256" r="238" fill="url(#p)" stroke="#d9ad59" stroke-width="18"/>
  <circle cx="256" cy="256" r="203" fill="none" stroke="#f7e2b2" stroke-opacity=".5" stroke-width="4"/>
  <path d="M115 203c59-14 105-3 141 29v147c-36-29-82-38-141-23V203Zm282 0c-59-14-105-3-141 29v147c36-29 82-38 141-23V203Z" fill="#fff7e7" stroke="#c58c35" stroke-width="9"/>
  <path d="M151 246l37 80 34-72 34 75 34-75 34 72 37-80" fill="none" stroke="#511332" stroke-width="18" stroke-linecap="round"/>
  <g transform="rotate(28 270 286)"><rect x="260" y="172" width="19" height="205" rx="10" fill="url(#g)"/><ellipse cx="269" cy="158" rx="27" ry="37" fill="url(#g)"/></g>
  <path d="M229 186c-30-30 10-48-5-73 31 16 31 39 15 57 27-15 47-2 56-32 12 35-9 57-45 55" fill="none" stroke="#e6b545" stroke-width="10" stroke-linecap="round"/>
  <path d="M207 147c-22-3-36-14-41-35 23 3 37 14 41 35Z" fill="#789148"/>
</svg>
