<svg xmlns="http://www.w3.org/2000/svg" viewBox="0 0 1600 1000" role="img" aria-labelledby="title desc">
<title id="title">Mangrok ingredient atelier</title><desc id="desc">Original Mangrok culinary illustration</desc>
<defs>
  <linearGradient id="bg" x1="0" y1="0" x2="1" y2="1"><stop offset="0" stop-color="#fff8f4"/><stop offset="0.48" stop-color="#f7eaf1"/><stop offset="1" stop-color="#e7e9f8"/></linearGradient>
  <linearGradient id="paper" x1="0" y1="0" x2="0" y2="1"><stop stop-color="#fffdf9"/><stop offset="1" stop-color="#f5e9e4"/></linearGradient>
  <linearGradient id="metal" x1="0" y1="0" x2="1" y2="1"><stop stop-color="#edf0f2"/><stop offset="0.45" stop-color="#8e969d"/><stop offset="0.65" stop-color="#f6f7f7"/><stop offset="1" stop-color="#59626a"/></linearGradient>
  <linearGradient id="copper" x1="0" y1="0" x2="1" y2="1"><stop stop-color="#ffd0a8"/><stop offset="0.5" stop-color="#c6754a"/><stop offset="1" stop-color="#7b3e2b"/></linearGradient>
  <linearGradient id="green" x1="0" y1="0" x2="1" y2="1"><stop stop-color="#a4c89d"/><stop offset="1" stop-color="#3e7058"/></linearGradient>
  <linearGradient id="tomato" x1="0" y1="0" x2="1" y2="1"><stop stop-color="#ffb194"/><stop offset="1" stop-color="#c95355"/></linearGradient>
  <linearGradient id="sauce" x1="0" y1="0" x2="1" y2="1"><stop stop-color="#efa77c"/><stop offset="1" stop-color="#8f3541"/></linearGradient>
  <filter id="shadow" x="-30%" y="-30%" width="160%" height="180%"><feDropShadow dx="0" dy="18" stdDeviation="18" flood-color="#553445" flood-opacity=".17"/></filter>
  <filter id="soft" x="-20%" y="-20%" width="140%" height="140%"><feGaussianBlur stdDeviation="14"/></filter>
  <filter id="grain"><feTurbulence type="fractalNoise" baseFrequency=".8" numOctaves="3" seed="4" result="noise"/><feColorMatrix in="noise" type="saturate" values="0"/><feComponentTransfer><feFuncA type="table" tableValues="0 .05"/></feComponentTransfer></filter>
  <pattern id="dots" width="28" height="28" patternUnits="userSpaceOnUse"><circle cx="3" cy="3" r="1.2" fill="#8b647c" opacity=".12"/></pattern>
</defs>
<rect width="1600" height="1000" fill="url(#bg)"/><rect width="1600" height="1000" fill="url(#dots)"/>

<ellipse cx="340" cy="140" rx="280" ry="130" fill="#f6cbd5" opacity=".55" filter="url(#soft)"/><ellipse cx="1300" cy="830" rx="300" ry="160" fill="#d4dff0" opacity=".7" filter="url(#soft)"/>
<g filter="url(#shadow)"><rect x="100" y="84" width="1400" height="830" rx="58" fill="#fffaf7" stroke="#fff" stroke-width="5"/></g>
<text x="155" y="160" font-family="Georgia,serif" font-size="44" fill="#5e4254">The ingredient atelier</text><text x="156" y="202" font-family="Arial,sans-serif" font-size="18" fill="#957287" letter-spacing="2">FRESH · AROMATIC · TEXTURAL · BALANCED</text>
<g transform="translate(145 270)">
<g filter="url(#shadow)"><ellipse cx="245" cy="275" rx="230" ry="58" fill="#6e4453" opacity=".12"/><ellipse cx="245" cy="190" rx="220" ry="167" fill="#e8d4c5"/><ellipse cx="245" cy="185" rx="190" ry="138" fill="#fbf0e7"/></g>
<g transform="translate(65 55)"><circle cx="94" cy="84" r="58" fill="url(#tomato)"/><path d="M92 32l8-24M85 37l-23-18M102 37l22-19" stroke="#547054" stroke-width="10" stroke-linecap="round"/><circle cx="202" cy="128" r="50" fill="#e0bd77"/><path d="M173 95c45-27 75-2 78 34-36 14-67 1-78-34Z" fill="#6f9868"/><ellipse cx="112" cy="212" rx="76" ry="46" fill="#6f9a6b" transform="rotate(-8 112 212)"/><path d="M50 216c45-68 111-73 144-22-38 55-98 72-144 22Z" fill="#8eb884"/><ellipse cx="277" cy="228" rx="52" ry="33" fill="#7c486f"/><path d="M266 195c16-34 49-30 62-6-12 27-37 37-62 6Z" fill="#60885d"/></g></g>
<g transform="translate(590 270)"><g filter="url(#shadow)"><ellipse cx="210" cy="277" rx="192" ry="52" fill="#5e4553" opacity=".12"/><ellipse cx="210" cy="184" rx="202" ry="154" fill="#d6bdac"/><ellipse cx="210" cy="180" rx="173" ry="127" fill="#f9ecdf"/></g><g transform="translate(56 58)"><path d="M80 190c-18-92 9-158 81-190 43 56 25 130-81 190Z" fill="#70936d"/><path d="M115 180c-7-89 39-137 102-157 30 73-7 134-102 157Z" fill="#94b58c"/><path d="M168 193c25-94 78-128 144-109-10 82-60 122-144 109Z" fill="#526f5b"/><g fill="#b15d5e"><circle cx="65" cy="85" r="15"/><circle cx="87" cy="56" r="12"/><circle cx="106" cy="92" r="13"/></g><g fill="#e6b55e"><circle cx="225" cy="55" r="11"/><circle cx="249" cy="78" r="10"/><circle cx="278" cy="52" r="12"/></g></g></g>
<g transform="translate(1000 270)"><g filter="url(#shadow)"><ellipse cx="220" cy="280" rx="205" ry="55" fill="#5e4553" opacity=".12"/><ellipse cx="220" cy="185" rx="212" ry="158" fill="#cab9c8"/><ellipse cx="220" cy="180" rx="181" ry="130" fill="#f7edf5"/></g><g transform="translate(64 55)"><ellipse cx="100" cy="106" rx="72" ry="88" fill="#e4c694"/><path d="M57 102c48-48 107-39 138 3-37 50-101 50-138-3Z" fill="#f5ddac"/><circle cx="260" cy="99" r="67" fill="#e9aa6e"/><path d="M215 105c29-61 94-73 132-18-25 57-88 73-132 18Z" fill="#f7c98d"/><g fill="#9b5d50"><ellipse cx="89" cy="204" rx="28" ry="15"/><ellipse cx="138" cy="216" rx="30" ry="16"/><ellipse cx="238" cy="207" rx="23" ry="14"/><ellipse cx="287" cy="214" rx="27" ry="14"/></g></g></g></g>
<g transform="translate(160 695)"><rect width="1280" height="150" rx="36" fill="#f4e7ed" stroke="#ead4df" stroke-width="3"/><text x="42" y="48" font-family="Georgia,serif" font-size="28" fill="#5e4254">A visual pantry that behaves like a formula</text><text x="42" y="83" font-family="Arial,sans-serif" font-size="17" fill="#86677a">Select real ingredients, then let Mangrok study balance, moisture, fat, acidity, heat and timing.</text><g transform="translate(930 34)"><rect width="280" height="76" rx="24" fill="#fff"/><text x="26" y="31" font-family="Arial,sans-serif" font-size="13" fill="#927488">CURATED LIBRARY</text><text x="26" y="60" font-family="Georgia,serif" font-size="27" fill="#684b5d">160 ingredients</text></g></g>

<rect width="1600" height="1000" filter="url(#grain)" opacity=".7"/>
</svg>